<?xml version="1.0" encoding="UTF-8" standalone="no"?>
<svg
   xmlns:dc="http://purl.org/dc/elements/1.1/"
   xmlns:cc="http://creativecommons.org/ns#"
   xmlns:rdf="http://www.w3.org/1999/02/22-rdf-syntax-ns#"
   xmlns:svg="http://www.w3.org/2000/svg"
   xmlns="http://www.w3.org/2000/svg"
   style="shape-rendering:crispEdges"
   version="1.1"
   id="svg2"
   viewBox="0 0 30 30"
   height="30"
   width="30">
  <defs
     id="defs4" />
  <metadata
     id="metadata7">
    <rdf:RDF>
      <cc:Work
         rdf:about="">
        <dc:format>image/svg+xml</dc:format>
        <dc:type
           rdf:resource="http://purl.org/dc/dcmitype/StillImage" />
        <dc:title></dc:title>
      </cc:Work>
    </rdf:RDF>
  </metadata>
  <g
     transform="translate(0,-1022.3622)"
     id="layer1">
    <path
       d="m 26.264081,1028.1914 1.058463,1.4736 0.865427,1.5946 0.658744,1.6905 0.441673,1.7598 0.217634,1.8012 -0.0098,1.8143 -0.23715,1.7988 -0.460724,1.7548 -0.677034,1.6833 -0.882664,1.5851 -1.074377,1.4621 -1.249144,1.3158 -1.404212,1.1489 -1.537135,0.9638 -1.645816,0.7636 -1.728542,0.5513 -1.784008,0.3303 -1.811338,0.1041 -1.810104,-0.1237 -1.780321,-0.3496 -1.7224639,-0.57 -1.637441,-0.7814 -1.5265951,-0.9805 -1.3916737,-1.164 -1.234805,-1.3293 -1.0584625,-1.4736 -0.8654275,-1.5946 -0.6587443,-1.6905 -0.44167207,-1.7598 -0.21763457,-1.8012 0.009835,-1.8143 0.23714985,-1.7988 0.4607245,-1.7548 0.6770333,-1.6833 0.8826648,-1.5852 1.0743762,-1.462 1.2491441,-1.3158 1.4042121,-1.1489 1.537135,-0.9639 1.6458162,-0.7636 1.7285424,-0.5513 1.784007,-0.3303 1.811339,-0.1041 1.810103,0.1238 1.780322,0.3496 1.722463,0.57 1.637441,0.7814 1.526596,0.9804 1.391673,1.1641 z"
       id="path4158"
       style="opacity:1;fill:#dfd4c4;fill-opacity:1;stroke:#e1cb9f;stroke-width:1.01652014;stroke-miterlimit:4;stroke-dasharray:none;stroke-opacity:1" />
  </g>
</svg>
